<?xml version="1.0" encoding="UTF-8"?>
<svg xmlns="http://www.w3.org/2000/svg" viewBox="0 0 1200 800" width="100%" height="100%">
  <!-- 背景渐变 -->
  <defs>
    <linearGradient id="bgGradient" x1="0%" y1="0%" x2="100%" y2="100%">
      <stop offset="0%" style="stop-color:#667eea;stop-opacity:1" />
      <stop offset="100%" style="stop-color:#764ba2;stop-opacity:1" />
    </linearGradient>
    <filter id="glassEffect">
      <feGaussianBlur in="SourceAlpha" stdDeviation="3"/>
      <feOffset dx="0" dy="2" result="offsetblur"/>
      <feFlood flood-color="rgba(255,255,255,0.3)"/>
      <feComposite in2="offsetblur" operator="in"/>
      <feMerge>
        <feMergeNode/>
        <feMergeNode in="SourceGraphic"/>
      </feMerge>
    </filter>
  </defs>

  <!-- 主背景 -->
  <rect width="1200" height="800" fill="url(#bgGradient)"/>

  <!-- 顶部导航栏 -->
  <rect x="0" y="0" width="1200" height="80" fill="rgba(255,255,255,0.1)" filter="url(#glassEffect)"/>
  <text x="30" y="50" font-family="Arial, sans-serif" font-size="28" font-weight="bold" fill="white">从夯到拉 - 多领域评价平台</text>
  
  <!-- 登录按钮 -->
  <rect x="1000" y="25" width="80" height="30" rx="15" fill="#4CAF50"/>
  <text x="1025" y="45" font-family="Arial" font-size="14" fill="white">登录</text>

  <!-- 统计数据面板 -->
  <rect x="30" y="100" width="340" height="120" rx="10" fill="rgba(255,255,255,0.9)" filter="url(#glassEffect)"/>
  <text x="50" y="130" font-family="Arial" font-size="16" font-weight="bold" fill="#333">评价统计</text>
  
  <text x="50" y="160" font-family="Arial" font-size="14" fill="#666">总评价数: <tspan font-weight="bold">2,456</tspan></text>
  <text x="50" y="185" font-family="Arial" font-size="14" fill="#666">平均等级: <tspan font-weight="bold" fill="#4CAF50">佳</tspan></text>
  <text x="200" y="160" font-family="Arial" font-size="14" fill="#666">活跃用户: <tspan font-weight="bold">1,234</tspan></text>
  <text x="200" y="185" font-family="Arial" font-size="14" fill="#666">内容数: <tspan font-weight="bold">567</tspan></text>

  <!-- 分类标签栏 -->
  <text x="30" y="250" font-family="Arial" font-size="16" font-weight="bold" fill="white">内容分类</text>
  <rect x="30" y="270" width="1140" height="50" rx="25" fill="rgba(255,255,255,0.1)" filter="url(#glassEffect)"/>
  
  <!-- 分类按钮 -->
  <rect x="50" y="280" width="80" height="30" rx="15" fill="#FF6B6B"/>
  <text x="70" y="300" font-family="Arial" font-size="12" fill="white">游戏</text>
  
  <rect x="150" y="280" width="80" height="30" rx="15" fill="#4ECDC4"/>
  <text x="170" y="300" font-family="Arial" font-size="12" fill="white">影视</text>
  
  <rect x="250" y="280" width="80" height="30" rx="15" fill="#45B7D1"/>
  <text x="265" y="300" font-family="Arial" font-size="12" fill="white">音乐</text>
  
  <rect x="350" y="280" width="80" height="30" rx="15" fill="#96CEB4"/>
  <text x="365" y="300" font-family="Arial" font-size="12" fill="white">文学</text>
  
  <rect x="450" y="280" width="80" height="30" rx="15" fill="#FECA57"/>
  <text x="470" y="300" font-family="Arial" font-size="12" fill="white">美食</text>
  
  <rect x="550" y="280" width="80" height="30" rx="15" fill="#FF9FF3"/>
  <text x="570" y="300" font-family="Arial" font-size="12" fill="white">科技</text>

  <!-- 内容列表标题 -->
  <text x="30" y="355" font-family="Arial" font-size="16" font-weight="bold" fill="white">热门内容</text>

  <!-- 内容卡片 1: 游戏 -->
  <rect x="30" y="370" width="270" height="180" rx="10" fill="rgba(255,255,255,0.9)" filter="url(#glassEffect)"/>
  <rect x="45" y="385" width="240" height="80" rx="5" fill="#E8E8E8"/>
  <text x="50" y="420" font-family="Arial" font-size="14" font-weight="bold" fill="#333">《赛博朋克2077》</text>
  <text x="50" y="440" font-family="Arial" font-size="10" fill="#666">游戏 • RPG</text>
  
  <!-- 评价等级显示 -->
  <rect x="50" y="480" width="40" height="20" rx="10" fill="#FFA726"/>
  <text x="57" y="494" font-family="Arial" font-size="10" fill="white">夯</text>
  
  <rect x="100" y="480" width="40" height="20" rx="10" fill="#42A5F5"/>
  <text x="107" y="494" font-family="Arial" font-size="10" fill="white">佳</text>
  
  <rect x="150" y="480" width="40" height="20" rx="10" fill="#AB47BC"/>
  <text x="157" y="494" font-family="Arial" font-size="10" fill="white">人上</text>

  <!-- 评分统计 -->
  <text x="50" y="525" font-family="Arial" font-size="10" fill="#666">平均: <tspan font-weight="bold" fill="#4CAF50">佳</tspan> (4.2/7)</text>

  <!-- 内容卡片 2: 影视 -->
  <rect x="320" y="370" width="270" height="180" rx="10" fill="rgba(255,255,255,0.9)" filter="url(#glassEffect)"/>
  <rect x="335" y="385" width="240" height="80" rx="5" fill="#E8E8E8"/>
  <text x="340" y="420" font-family="Arial" font-size="14" font-weight="bold" fill="#333">《星际穿越》</text>
  <text x="340" y="440" font-family="Arial" font-size="10" fill="#666">电影 • 科幻</text>
  
  <!-- 评价等级显示 -->
  <rect x="340" y="480" width="40" height="20" rx="10" fill="#66BB6A"/>
  <text x="347" y="494" font-family="Arial" font-size="10" fill="white">上</text>
  
  <rect x="390" y="480" width="40" height="20" rx="10" fill="#42A5F5"/>
  <text x="397" y="494" font-family="Arial" font-size="10" fill="white">佳</text>
  
  <rect x="440" y="480" width="40" height="20" rx="10" fill="#EC407A"/>
  <text x="447" y="494" font-family="Arial" font-size="10" fill="white">顶</text>

  <!-- 评分统计 -->
  <text x="340" y="525" font-family="Arial" font-size="10" fill="#666">平均: <tspan font-weight="bold" fill="#4CAF50">顶</tspan> (6.1/7)</text>

  <!-- 内容卡片 3: 音乐 -->
  <rect x="610" y="370" width="270" height="180" rx="10" fill="rgba(255,255,255,0.9)" filter="url(#glassEffect)"/>
  <rect x="625" y="385" width="240" height="80" rx="5" fill="#E8E8E8"/>
  <text x="630" y="420" font-family="Arial" font-size="14" font-weight="bold" fill="#333">《海阔天空》</text>
  <text x="630" y="440" font-family="Arial" font-size="10" fill="#666">音乐 • 摇滚</text>
  
  <!-- 评价等级显示 -->
  <rect x="630" y="480" width="40" height="20" rx="10" fill="#42A5F5"/>
  <text x="637" y="494" font-family="Arial" font-size="10" fill="white">佳</text>
  
  <rect x="680" y="480" width="40" height="20" rx="10" fill="#AB47BC"/>
  <text x="687" y="494" font-family="Arial" font-size="10" fill="white">人上</text>
  
  <rect x="730" y="480" width="40" height="20" rx="10" fill="#EC407A"/>
  <text x="737" y="494" font-family="Arial" font-size="10" fill="white">顶</text>

  <!-- 评分统计 -->
  <text x="630" y="525" font-family="Arial" font-size="10" fill="#666">平均: <tspan font-weight="bold" fill="#4CAF50">人上</tspan> (5.8/7)</text>

  <!-- 右侧评价面板（展示评价界面） -->
  <rect x="900" y="100" width="280" height="450" rx="10" fill="rgba(255,255,255,0.9)" filter="url(#glassEffect)"/>
  <text x="920" y="130" font-family="Arial" font-size="16" font-weight="bold" fill="#333">评价《赛博朋克2077》</text>
  
  <!-- 评价等级选择 -->
  <text x="920" y="160" font-family="Arial" font-size="12" fill="#666">选择等级</text>
  
  <!-- 7级评价体系按钮 -->
  <rect x="920" y="170" width="60" height="25" rx="12" fill="#FF6B6B"/>
  <text x="940" y="187" font-family="Arial" font-size="10" fill="white">拉</text>
  
  <rect x="990" y="170" width="60" height="25" rx="12" fill="#FFA726"/>
  <text x="1010" y="187" font-family="Arial" font-size="10" fill="white">夯</text>
  
  <rect x="1060" y="170" width="60" height="25" rx="12" fill="#FFEE58"/>
  <text x="1080" y="187" font-family="Arial" font-size="10" fill="#333">中</text>
  
  <rect x="920" y="205" width="60" height="25" rx="12" fill="#66BB6A"/>
  <text x="940" y="222" font-family="Arial" font-size="10" fill="white">上</text>
  
  <rect x="990" y="205" width="60" height="25" rx="12" fill="#42A5F5"/>
  <text x="1010" y="222" font-family="Arial" font-size="10" fill="white">佳</text>
  
  <rect x="1060" y="205" width="60" height="25" rx="12" fill="#AB47BC"/>
  <text x="1075" y="222" font-family="Arial" font-size="10" fill="white">人上</text>
  
  <rect x="940" y="240" width="60" height="25" rx="12" fill="#EC407A"/>
  <text x="960" y="257" font-family="Arial" font-size="10" fill="white">顶</text>

  <!-- 多维度评价 -->
  <text x="920" y="290" font-family="Arial" font-size="12" fill="#666">多维度评价</text>
  
  <!-- 维度选择器 -->
  <rect x="920" y="300" width="240" height="25" rx="12" fill="#F0F0F0"/>
  <text x="930" y="317" font-family="Arial" font-size="10" fill="#333">技术层面: 选择等级...</text>
  
  <rect x="920" y="335" width="240" height="25" rx="12" fill="#F0F0F0"/>
  <text x="930" y="352" font-family="Arial" font-size="10" fill="#333">创意层面: 选择等级...</text>
  
  <rect x="920" y="370" width="240" height="25" rx="12" fill="#F0F0F0"/>
  <text x="930" y="387" font-family="Arial" font-size="10" fill="#333">执行层面: 选择等级...</text>
  
  <rect x="920" y="405" width="240" height="25" rx="12" fill="#F0F0F0"/>
  <text x="930" y="422" font-family="Arial" font-size="10" fill="#333">影响力: 选择等级...</text>

  <!-- 标签选择 -->
  <text x="920" y="455" font-family="Arial" font-size="12" fill="#666">添加标签</text>
  <rect x="920" y="465" width="240" height="30" rx="15" fill="#F0F0F0"/>
  <text x="930" y="484" font-family="Arial" font-size="10" fill="#666">输入标签...</text>

  <!-- 提交按钮 -->
  <rect x="920" y="505" width="240" height="30" rx="15" fill="#4CAF50"/>
  <text x="980" y="525" font-family="Arial" font-size="14" font-weight="bold" fill="white">提交评价</text>

  <!-- 底部评价分布图表 -->
  <rect x="30" y="580" width="560" height="150" rx="10" fill="rgba(255,255,255,0.9)" filter="url(#glassEffect)"/>
  <text x="50" y="610" font-family="Arial" font-size="16" font-weight="bold" fill="#333">评价分布</text>
  
  <!-- 简单的条形图 -->
  <text x="50" y="640" font-family="Arial" font-size="10" fill="#666">拉</text>
  <rect x="80" y="635" width="30" height="10" fill="#FF6B6B"/>
  
  <text x="50" y="665" font-family="Arial" font-size="10" fill="#666">夯</text>
  <rect x="80" y="660" width="60" height="10" fill="#FFA726"/>
  
  <text x="50" y="690" font-family="Arial" font-size="10" fill="#666">中</text>
  <rect x="80" y="685" width="80" height="10" fill="#FFEE58"/>
  
  <text x="200" y="640" font-family="Arial" font-size="10" fill="#666">上</text>
  <rect x="230" y="635" width="100" height="10" fill="#66BB6A"/>
  
  <text x="200" y="665" font-family="Arial" font-size="10" fill="666">佳</text>
  <rect x="230" y="660" width="150" height="10" fill="#42A5F5"/>
  
  <text x="200" y="690" font-family="Arial" font-size="10" fill="#666">人上</text>
  <rect x="230" y="685" width="80" height="10" fill="#AB47BC"/>
  
  <text x="350" y="665" font-family="Arial" font-size="10" fill="#666">顶</text>
  <rect x="380" y="660" width="40" height="10" fill="#EC407A"/>

  <!-- 版权信息 -->
  <text x="30" y="760" font-family="Arial" font-size="12" fill="rgba(255,255,255,0.7)">
    © 2024 从夯到拉评价平台 - 让每个评价都有意义
  </text>
</svg>